<svg width="800" height="185" viewBox="0 0 800 185" fill="none" xmlns="http://www.w3.org/2000/svg">
<path d="M75.5 9.81495C86.0196 3.74144 98.9804 3.74144 109.5 9.81495L155.607 36.435C166.127 42.5086 172.607 53.7329 172.607 65.8799V119.12C172.607 131.267 166.127 142.491 155.607 148.565L109.5 175.185C98.9804 181.259 86.0196 181.259 75.5 175.185L29.3927 148.565C18.873 142.491 12.3926 131.267 12.3926 119.12V65.8799C12.3926 53.7329 18.873 42.5086 29.3926 36.435L75.5 9.81495Z" fill="#6F6F6F"/>
<path d="M68.328 109.024L40.32 92.176C39.312 91.6 38.808 90.76 38.808 89.656C38.808 88.744 39.312 87.904 40.32 87.136L68.328 70.288C69.24 69.856 70.152 69.856 71.064 70.288C72.024 70.672 72.504 71.416 72.504 72.52C72.504 73.624 72.048 74.464 71.136 75.04L46.8 89.584L71.136 104.128C72.048 104.752 72.504 105.568 72.504 106.576C72.504 107.68 72 108.496 70.992 109.024C70.032 109.552 69.144 109.552 68.328 109.024ZM80.919 120.616C79.911 120.616 79.119 120.208 78.543 119.392C78.015 118.624 77.967 117.712 78.399 116.656L101.007 60.28C101.439 59.176 102.303 58.624 103.599 58.624C104.655 58.624 105.423 59.056 105.903 59.92C106.383 60.736 106.455 61.624 106.119 62.584L83.511 119.032C83.271 119.608 82.911 120.016 82.431 120.256C81.951 120.496 81.447 120.616 80.919 120.616ZM116.109 109.024C115.293 109.552 114.381 109.552 113.373 109.024C112.413 108.496 111.933 107.68 111.933 106.576C111.933 105.568 112.389 104.752 113.301 104.128L137.709 89.584L113.301 75.04C112.389 74.464 111.933 73.624 111.933 72.52C111.933 71.416 112.389 70.672 113.301 70.288C114.261 69.856 115.197 69.856 116.109 70.288L144.117 87.136C145.125 87.904 145.629 88.744 145.629 89.656C145.629 90.76 145.125 91.6 144.117 92.176L116.109 109.024Z" fill="white"/>
<line x1="194.5" x2="194.5" y2="185" stroke="#6F6F6F" stroke-width="5"/>
<path d="M254 87.64V97H214.976V46.6H253.064V55.96H226.568V66.904H249.968V75.976H226.568V87.64H254ZM301.663 43.576V97H290.935V92.536C288.151 95.896 284.119 97.576 278.839 97.576C275.191 97.576 271.879 96.76 268.903 95.128C265.975 93.496 263.671 91.168 261.991 88.144C260.311 85.12 259.471 81.616 259.471 77.632C259.471 73.648 260.311 70.144 261.991 67.12C263.671 64.096 265.975 61.768 268.903 60.136C271.879 58.504 275.191 57.688 278.839 57.688C283.783 57.688 287.647 59.248 290.431 62.368V43.576H301.663ZM280.783 88.36C283.615 88.36 285.967 87.4 287.839 85.48C289.711 83.512 290.647 80.896 290.647 77.632C290.647 74.368 289.711 71.776 287.839 69.856C285.967 67.888 283.615 66.904 280.783 66.904C277.903 66.904 275.527 67.888 273.655 69.856C271.783 71.776 270.847 74.368 270.847 77.632C270.847 80.896 271.783 83.512 273.655 85.48C275.527 87.4 277.903 88.36 280.783 88.36ZM374.267 58.264L360.227 97H349.427L340.715 72.952L331.715 97H320.915L306.947 58.264H317.531L326.675 84.472L336.179 58.264H345.683L354.899 84.472L364.331 58.264H374.267ZM393.847 57.688C399.847 57.688 404.455 59.128 407.671 62.008C410.887 64.84 412.495 69.136 412.495 74.896V97H401.983V92.176C399.871 95.776 395.935 97.576 390.175 97.576C387.199 97.576 384.607 97.072 382.399 96.064C380.239 95.056 378.583 93.664 377.431 91.888C376.279 90.112 375.703 88.096 375.703 85.84C375.703 82.24 377.047 79.408 379.735 77.344C382.471 75.28 386.671 74.248 392.335 74.248H401.263C401.263 71.8 400.519 69.928 399.031 68.632C397.543 67.288 395.311 66.616 392.335 66.616C390.271 66.616 388.231 66.952 386.215 67.624C384.247 68.248 382.567 69.112 381.175 70.216L377.143 62.368C379.255 60.88 381.775 59.728 384.703 58.912C387.679 58.096 390.727 57.688 393.847 57.688ZM392.983 90.016C394.903 90.016 396.607 89.584 398.095 88.72C399.583 87.808 400.639 86.488 401.263 84.76V80.8H393.559C388.951 80.8 386.647 82.312 386.647 85.336C386.647 86.776 387.199 87.928 388.303 88.792C389.455 89.608 391.015 90.016 392.983 90.016ZM433.389 63.376C434.733 61.504 436.533 60.088 438.789 59.128C441.093 58.168 443.733 57.688 446.709 57.688V68.056C445.461 67.96 444.621 67.912 444.189 67.912C440.973 67.912 438.453 68.824 436.629 70.648C434.805 72.424 433.893 75.112 433.893 78.712V97H422.661V58.264H433.389V63.376ZM492.492 43.576V97H481.764V92.536C478.98 95.896 474.948 97.576 469.668 97.576C466.02 97.576 462.708 96.76 459.732 95.128C456.804 93.496 454.5 91.168 452.82 88.144C451.14 85.12 450.3 81.616 450.3 77.632C450.3 73.648 451.14 70.144 452.82 67.12C454.5 64.096 456.804 61.768 459.732 60.136C462.708 58.504 466.02 57.688 469.668 57.688C474.612 57.688 478.476 59.248 481.26 62.368V43.576H492.492ZM471.612 88.36C474.444 88.36 476.796 87.4 478.668 85.48C480.54 83.512 481.476 80.896 481.476 77.632C481.476 74.368 480.54 71.776 478.668 69.856C476.796 67.888 474.444 66.904 471.612 66.904C468.732 66.904 466.356 67.888 464.484 69.856C462.612 71.776 461.676 74.368 461.676 77.632C461.676 80.896 462.612 83.512 464.484 85.48C466.356 87.4 468.732 88.36 471.612 88.36ZM561.078 70.792C563.958 71.704 566.214 73.24 567.846 75.4C569.478 77.512 570.294 80.128 570.294 83.248C570.294 87.664 568.566 91.072 565.11 93.472C561.702 95.824 556.71 97 550.134 97H524.07V46.6H548.694C554.838 46.6 559.542 47.776 562.806 50.128C566.118 52.48 567.774 55.672 567.774 59.704C567.774 62.152 567.174 64.336 565.974 66.256C564.822 68.176 563.19 69.688 561.078 70.792ZM535.662 55.384V67.264H547.254C550.134 67.264 552.318 66.76 553.806 65.752C555.294 64.744 556.038 63.256 556.038 61.288C556.038 59.32 555.294 57.856 553.806 56.896C552.318 55.888 550.134 55.384 547.254 55.384H535.662ZM549.27 88.216C552.342 88.216 554.646 87.712 556.182 86.704C557.766 85.696 558.558 84.136 558.558 82.024C558.558 77.848 555.462 75.76 549.27 75.76H535.662V88.216H549.27ZM593.956 57.688C599.956 57.688 604.564 59.128 607.78 62.008C610.996 64.84 612.604 69.136 612.604 74.896V97H602.092V92.176C599.98 95.776 596.044 97.576 590.284 97.576C587.308 97.576 584.716 97.072 582.508 96.064C580.348 95.056 578.692 93.664 577.54 91.888C576.388 90.112 575.812 88.096 575.812 85.84C575.812 82.24 577.156 79.408 579.844 77.344C582.58 75.28 586.78 74.248 592.444 74.248H601.372C601.372 71.8 600.628 69.928 599.14 68.632C597.652 67.288 595.42 66.616 592.444 66.616C590.38 66.616 588.34 66.952 586.324 67.624C584.356 68.248 582.676 69.112 581.284 70.216L577.252 62.368C579.364 60.88 581.884 59.728 584.812 58.912C587.788 58.096 590.836 57.688 593.956 57.688ZM593.092 90.016C595.012 90.016 596.716 89.584 598.204 88.72C599.692 87.808 600.748 86.488 601.372 84.76V80.8H593.668C589.06 80.8 586.756 82.312 586.756 85.336C586.756 86.776 587.308 87.928 588.412 88.792C589.564 89.608 591.124 90.016 593.092 90.016ZM633.498 63.376C634.842 61.504 636.642 60.088 638.898 59.128C641.202 58.168 643.842 57.688 646.818 57.688V68.056C645.57 67.96 644.73 67.912 644.298 67.912C641.082 67.912 638.562 68.824 636.738 70.648C634.914 72.424 634.002 75.112 634.002 78.712V97H622.77V58.264H633.498V63.376ZM664.225 63.376C665.569 61.504 667.369 60.088 669.625 59.128C671.929 58.168 674.569 57.688 677.545 57.688V68.056C676.297 67.96 675.457 67.912 675.025 67.912C671.809 67.912 669.289 68.824 667.465 70.648C665.641 72.424 664.729 75.112 664.729 78.712V97H653.497V58.264H664.225V63.376ZM721.816 77.776C721.816 77.92 721.744 78.928 721.6 80.8H692.296C692.824 83.2 694.072 85.096 696.04 86.488C698.008 87.88 700.456 88.576 703.384 88.576C705.4 88.576 707.176 88.288 708.712 87.712C710.296 87.088 711.76 86.128 713.104 84.832L719.08 91.312C715.432 95.488 710.104 97.576 703.096 97.576C698.728 97.576 694.864 96.736 691.504 95.056C688.144 93.328 685.552 90.952 683.728 87.928C681.904 84.904 680.992 81.472 680.992 77.632C680.992 73.84 681.88 70.432 683.656 67.408C685.48 64.336 687.952 61.96 691.072 60.28C694.24 58.552 697.768 57.688 701.656 57.688C705.448 57.688 708.88 58.504 711.952 60.136C715.024 61.768 717.424 64.12 719.152 67.192C720.928 70.216 721.816 73.744 721.816 77.776ZM701.728 66.184C699.184 66.184 697.048 66.904 695.32 68.344C693.592 69.784 692.536 71.752 692.152 74.248H711.232C710.848 71.8 709.792 69.856 708.064 68.416C706.336 66.928 704.224 66.184 701.728 66.184ZM740.021 63.376C741.365 61.504 743.165 60.088 745.421 59.128C747.725 58.168 750.365 57.688 753.341 57.688V68.056C752.093 67.96 751.253 67.912 750.821 67.912C747.605 67.912 745.085 68.824 743.261 70.648C741.437 72.424 740.525 75.112 740.525 78.712V97H729.293V58.264H740.021V63.376ZM775.433 57.688C781.433 57.688 786.041 59.128 789.257 62.008C792.473 64.84 794.081 69.136 794.081 74.896V97H783.569V92.176C781.457 95.776 777.521 97.576 771.761 97.576C768.785 97.576 766.193 97.072 763.985 96.064C761.825 95.056 760.169 93.664 759.017 91.888C757.865 90.112 757.289 88.096 757.289 85.84C757.289 82.24 758.633 79.408 761.321 77.344C764.057 75.28 768.257 74.248 773.921 74.248H782.849C782.849 71.8 782.105 69.928 780.617 68.632C779.129 67.288 776.897 66.616 773.921 66.616C771.857 66.616 769.817 66.952 767.801 67.624C765.833 68.248 764.153 69.112 762.761 70.216L758.729 62.368C760.841 60.88 763.361 59.728 766.289 58.912C769.265 58.096 772.313 57.688 775.433 57.688ZM774.569 90.016C776.489 90.016 778.193 89.584 779.681 88.72C781.169 87.808 782.225 86.488 782.849 84.76V80.8H775.145C770.537 80.8 768.233 82.312 768.233 85.336C768.233 86.776 768.785 87.928 769.889 88.792C771.041 89.608 772.601 90.016 774.569 90.016Z" fill="#6F6F6F"/>
<path d="M254.384 113.8L245.96 139H242.18L235.304 118.876L228.428 139H224.576L216.152 113.8H219.86L226.664 134.284L233.756 113.8H237.068L244.016 134.392L250.964 113.8H254.384ZM277.076 135.868V139H258.788V113.8H276.572V116.932H262.388V124.672H275.024V127.732H262.388V135.868H277.076ZM299.861 125.932C301.325 126.34 302.477 127.084 303.317 128.164C304.157 129.22 304.577 130.564 304.577 132.196C304.577 134.38 303.749 136.06 302.093 137.236C300.461 138.412 298.073 139 294.929 139H282.905V113.8H294.209C297.089 113.8 299.309 114.376 300.869 115.528C302.453 116.68 303.245 118.276 303.245 120.316C303.245 121.636 302.933 122.776 302.309 123.736C301.709 124.696 300.893 125.428 299.861 125.932ZM286.505 116.716V124.78H293.885C295.733 124.78 297.149 124.444 298.133 123.772C299.141 123.076 299.645 122.068 299.645 120.748C299.645 119.428 299.141 118.432 298.133 117.76C297.149 117.064 295.733 116.716 293.885 116.716H286.505ZM294.785 136.084C296.825 136.084 298.361 135.748 299.393 135.076C300.425 134.404 300.941 133.348 300.941 131.908C300.941 129.1 298.889 127.696 294.785 127.696H286.505V136.084H294.785ZM319.819 113.8H330.439C333.103 113.8 335.467 114.328 337.531 115.384C339.595 116.44 341.191 117.928 342.319 119.848C343.471 121.744 344.047 123.928 344.047 126.4C344.047 128.872 343.471 131.068 342.319 132.988C341.191 134.884 339.595 136.36 337.531 137.416C335.467 138.472 333.103 139 330.439 139H319.819V113.8ZM330.223 135.868C332.263 135.868 334.051 135.472 335.587 134.68C337.147 133.888 338.347 132.784 339.187 131.368C340.027 129.928 340.447 128.272 340.447 126.4C340.447 124.528 340.027 122.884 339.187 121.468C338.347 120.028 337.147 118.912 335.587 118.12C334.051 117.328 332.263 116.932 330.223 116.932H323.419V135.868H330.223ZM367.849 135.868V139H349.561V113.8H367.345V116.932H353.161V124.672H365.797V127.732H353.161V135.868H367.849ZM395.215 113.8L384.163 139H380.599L369.511 113.8H373.399L382.471 134.5L391.615 113.8H395.215ZM416.716 135.868V139H398.428V113.8H416.212V116.932H402.028V124.672H414.664V127.732H402.028V135.868H416.716ZM422.546 113.8H426.146V135.868H439.79V139H422.546V113.8ZM454.84 139.288C452.296 139.288 450.004 138.736 447.964 137.632C445.924 136.504 444.316 134.956 443.14 132.988C441.988 131.02 441.412 128.824 441.412 126.4C441.412 123.976 441.988 121.78 443.14 119.812C444.316 117.844 445.924 116.308 447.964 115.204C450.004 114.076 452.296 113.512 454.84 113.512C457.36 113.512 459.64 114.076 461.68 115.204C463.72 116.308 465.316 117.844 466.468 119.812C467.62 121.756 468.196 123.952 468.196 126.4C468.196 128.848 467.62 131.056 466.468 133.024C465.316 134.968 463.72 136.504 461.68 137.632C459.64 138.736 457.36 139.288 454.84 139.288ZM454.84 136.084C456.688 136.084 458.344 135.664 459.808 134.824C461.296 133.984 462.46 132.832 463.3 131.368C464.164 129.88 464.596 128.224 464.596 126.4C464.596 124.576 464.164 122.932 463.3 121.468C462.46 119.98 461.296 118.816 459.808 117.976C458.344 117.136 456.688 116.716 454.84 116.716C452.992 116.716 451.312 117.136 449.8 117.976C448.312 118.816 447.136 119.98 446.272 121.468C445.432 122.932 445.012 124.576 445.012 126.4C445.012 128.224 445.432 129.88 446.272 131.368C447.136 132.832 448.312 133.984 449.8 134.824C451.312 135.664 452.992 136.084 454.84 136.084ZM483.526 113.8C486.79 113.8 489.358 114.58 491.23 116.14C493.102 117.7 494.038 119.848 494.038 122.584C494.038 125.32 493.102 127.468 491.23 129.028C489.358 130.588 486.79 131.368 483.526 131.368H477.298V139H473.698V113.8H483.526ZM483.418 128.236C485.698 128.236 487.438 127.756 488.638 126.796C489.838 125.812 490.438 124.408 490.438 122.584C490.438 120.76 489.838 119.368 488.638 118.408C487.438 117.424 485.698 116.932 483.418 116.932H477.298V128.236H483.418ZM517.615 135.868V139H499.327V113.8H517.111V116.932H502.927V124.672H515.563V127.732H502.927V135.868H517.615ZM540.292 139L534.856 131.26C534.184 131.308 533.656 131.332 533.272 131.332H527.044V139H523.444V113.8H533.272C536.536 113.8 539.104 114.58 540.976 116.14C542.848 117.7 543.784 119.848 543.784 122.584C543.784 124.528 543.304 126.184 542.344 127.552C541.384 128.92 540.016 129.916 538.24 130.54L544.216 139H540.292ZM533.164 128.272C535.444 128.272 537.184 127.78 538.384 126.796C539.584 125.812 540.184 124.408 540.184 122.584C540.184 120.76 539.584 119.368 538.384 118.408C537.184 117.424 535.444 116.932 533.164 116.932H527.044V128.272H533.164Z" fill="black"/>
</svg>
